<?xml version="1.0" encoding="UTF-8"?>
<svg id="Calque_2" data-name="Calque 2" xmlns="http://www.w3.org/2000/svg" viewBox="0 0 292.73 292.73">
  <g id="Calque_1-2" data-name="Calque 1">
    <g>
      <circle cx="146.36" cy="146.36" r="146.36" style="fill: #26c;"/>
      <ellipse cx="146.36" cy="146.36" rx="19.09" ry="9.55" style="fill: #bbecfe;"/>
      <path d="M146.36,186.05c-26.93,0-48.84-17.8-48.84-39.68s21.91-39.68,48.84-39.68,48.84,17.8,48.84,39.68-21.91,39.68-48.84,39.68ZM146.36,115.69c-21.6,0-39.17,13.76-39.17,30.67s17.57,30.67,39.17,30.67,39.17-13.76,39.17-30.67-17.57-30.67-39.17-30.67Z" style="fill: #bbecfe;"/>
      <path d="M146.37,225.91c-49.13,0-89.09-35.69-89.09-79.55s39.97-79.55,89.09-79.55,89.09,35.69,89.09,79.55-39.97,79.55-89.09,79.55ZM146.37,86.82c-38.19,0-69.25,26.71-69.25,59.54s31.07,59.54,69.25,59.54,69.25-26.71,69.25-59.54-31.07-59.54-69.25-59.54Z" style="fill: #bbecfe;"/>
    </g>
  </g>
</svg>