<?xml version="1.0" encoding="UTF-8"?>
<svg id="Calque_2" data-name="Calque 2" xmlns="http://www.w3.org/2000/svg" viewBox="0 0 292.73 292.73">
  <g id="Calque_1-2" data-name="Calque 1">
    <g>
      <circle cx="146.36" cy="146.36" r="146.36" style="fill: #999;"/>
      <path d="M204.86,87.87c-15.62-15.62-36.4-24.23-58.5-24.23-22.1,0-42.87,8.61-58.5,24.23-15.62,15.62-24.23,36.4-24.23,58.5,0,22.1,8.61,42.87,24.23,58.5,15.62,15.62,36.4,24.23,58.5,24.23,22.1,0,42.87-8.61,58.5-24.23,15.62-15.62,24.23-36.4,24.23-58.5,0-22.1-8.61-42.87-24.23-58.5ZM146.36,219.4c-40.27,0-73.03-32.76-73.03-73.03,0-27.04,14.78-50.71,36.68-63.33-4.7,6.98-7.44,15.37-7.44,24.39,0,24.14,19.64,43.79,43.79,43.79,18.8,0,34.09,15.29,34.09,34.09,0,18.8-15.29,34.09-34.09,34.09Z" style="fill: #eee;"/>
    </g>
  </g>
</svg>