<svg width="12" height="12" viewBox="0 0 12 12" fill="none" xmlns="http://www.w3.org/2000/svg">
<path d="M6 0C9.312 0 12 2.694 12 6C12 9.306 9.306 12 6 12C2.694 12 0 9.306 0 6C0 2.694 2.694 0 6 0ZM1.24219 6.59961C1.54219 8.96361 3.552 10.7998 6 10.7998C8.44797 10.7998 10.4638 8.96359 10.7578 6.59961H8.31641C8.04641 7.63159 7.10998 8.40036 6 8.40039C4.89 8.40039 3.95443 7.63161 3.69043 6.59961H1.24219ZM6 4.7998C5.3373 4.79983 4.79983 5.3373 4.7998 6C4.7998 6.66273 5.33728 7.20017 6 7.2002C6.66274 7.2002 7.2002 6.66274 7.2002 6C7.20017 5.33728 6.66273 4.7998 6 4.7998ZM6 1.2002C5.08446 1.2002 4.22878 1.45807 3.50098 1.90527C3.44014 1.94265 3.3803 1.9815 3.32129 2.02148C2.20328 2.77904 1.42031 3.99677 1.24219 5.40039H3.69043C3.7069 5.33599 3.72548 5.27218 3.74707 5.20996C3.7903 5.08512 3.84402 4.96518 3.90625 4.85059C4.31129 4.10698 5.09817 3.59961 6 3.59961C6.9463 3.59963 7.76481 4.1588 8.15332 4.96289C8.16355 4.98412 8.17495 5.0048 8.18457 5.02637C8.21134 5.08634 8.23587 5.14755 8.25781 5.20996C8.27972 5.27217 8.29956 5.336 8.31641 5.40039H10.7578C10.7394 5.25251 10.7142 5.10632 10.6826 4.96289C10.2559 3.02592 8.65476 1.52304 6.66699 1.24512C6.52823 1.22579 6.38744 1.21323 6.24512 1.20605C6.23926 1.20576 6.2334 1.20535 6.22754 1.20508C6.15214 1.20155 6.07628 1.2002 6 1.2002ZM6.60547 3.67773H6.60449H6.60547ZM6.66699 1.24512C6.65988 1.24412 6.65263 1.24413 6.64551 1.24316C6.65263 1.24412 6.65988 1.24413 6.66699 1.24512ZM6.24512 1.20605C6.38011 1.21289 6.51365 1.22533 6.64551 1.24316C6.51367 1.22541 6.38014 1.21286 6.24512 1.20605Z" fill="black"/>
</svg>
