<svg preserveAspectRatio="none" width="100%" height="100%" overflow="visible" style="display: block;" viewBox="0 0 51.2 38.8973" fill="none" xmlns="http://www.w3.org/2000/svg">
<g id="Group">
<path id="Vector" d="M23.34 13.8787C20.28 15.1487 18.82 18.6587 20.09 21.7187C21.36 24.7787 24.87 26.2387 27.93 24.9687C30.99 23.6987 32.45 20.1887 31.18 17.1287C29.91 14.0687 26.4 12.6087 23.34 13.8787Z" fill="var(--fill-0, white)"/>
<path id="Vector_2" d="M50.74 10.7787L38.53 15.8387C40.33 22.2887 37.07 29.2387 30.73 31.8687C24.38 34.4987 17.17 31.8887 13.87 26.0587L8.3 28.3687C12.88 37.2587 23.62 41.3087 33.02 37.4187C40.63 34.2687 45.16 26.8087 45 19.0087L51.2 11.8987L50.74 10.7887V10.7787Z" fill="var(--fill-0, white)"/>
<path id="Vector_3" d="M20.44 7.01872C26.78 4.38872 33.99 6.98872 37.28 12.8287L42.85 10.5187C38.27 1.63872 27.53 -2.41129 18.14 1.47872C10.51 4.63872 5.98 12.1187 6.15 19.9187L0 26.9787L0.46 28.0787L12.62 23.0387C10.82 16.5887 14.09 9.64872 20.43 7.01872H20.44Z" fill="var(--fill-0, white)"/>
</g>
</svg>
