<svg width="142" height="109" viewBox="0 0 142 109" fill="none" xmlns="http://www.w3.org/2000/svg">
<g style="mix-blend-mode:overlay" opacity="0.2">
<path d="M49.9339 4.06607C22.4004 31.5996 22.4004 76.4004 49.9339 103.934C77.4675 131.468 122.268 131.468 149.802 103.934C177.335 76.4004 177.335 31.5996 149.802 4.06607C122.268 -23.4675 77.4675 -23.4675 49.9339 4.06607ZM57.424 11.5562C79.5647 -10.5845 114.841 -11.7755 138.399 7.9784L115.158 31.2201C104.494 24.0571 89.8811 25.1831 80.4635 34.6007C71.046 44.0182 69.925 58.6314 77.083 69.2948L53.8463 92.5315C34.0924 68.9727 35.2833 33.6969 57.424 11.5562ZM111.78 42.0883C118.348 48.6571 118.348 59.3429 111.78 65.9117C105.211 72.4805 94.5249 72.4806 87.9561 65.9117C81.3873 59.3429 81.3873 48.6571 87.9561 42.0883C94.5249 35.5194 105.211 35.5195 111.78 42.0883ZM142.312 96.4438C120.171 118.585 84.8952 119.775 61.3363 100.022L84.5781 76.7799C95.2415 83.9429 109.855 82.8169 119.272 73.3993C128.69 63.9818 129.811 49.3686 122.65 38.7077L145.892 15.466C165.646 39.0248 164.457 74.2981 142.314 96.4414L142.312 96.4438Z" fill="white"/>
</g>
</svg>
